<?xml version="1.0" encoding="UTF-8"?>
<svg id="Layer_1" data-name="Layer 1" xmlns="http://www.w3.org/2000/svg" viewBox="0 0 16 16">
  <defs>
    <style>
      .cls-1 {
        fill: #33d9c2;
      }

      .cls-2 {
        fill: #2a4dbb;
      }
    </style>
  </defs>
  <path class="cls-2" d="m13.7,10v4.45c0,.74-.6,1.33-1.33,1.33h0c-.74,0-1.33-.6-1.33-1.33v-4.43c0-.8-.32-1.52-.84-2.04-.39-.39-.89-.67-1.44-.78-.19-.04-.39-.06-.6-.06s-.41.02-.61.06c-1.39.28-2.44,1.51-2.44,2.99v4.27c0,.74-.6,1.33-1.33,1.33h-.14c-.74,0-1.33-.6-1.33-1.33v-4.28c0-1.78.81-3.37,2.07-4.43.92-.77,2.09-1.26,3.37-1.34.12.02.23.02.35.02s.24,0,.36-.02c1.31.08,2.49.61,3.4,1.44.07.06.14.13.2.19,1.02,1.02,1.64,2.42,1.64,3.97Z"/>
  <path class="cls-1" d="m7.74,4.39c-1.28.08-2.45.56-3.37,1.34-.06-.06-.13-.12-.19-.18-1.02-1.04-1.64-2.47-1.64-4.06v-.09C2.54.75,3.06.22,3.69.22h.3c.67,0,1.22.56,1.22,1.24,0,.41.08.79.23,1.15.15.35.36.67.62.94.44.45,1.03.76,1.69.84Z"/>
</svg>